<?xml version="1.0" ?><svg height="32" id="icon" viewBox="0 0 32 32" width="32" xmlns="http://www.w3.org/2000/svg"><defs><style>
      .cls-1 {
        fill: none;
      }
      svg * {
        fill: #333;
      }
      @media (prefers-color-scheme: dark) {
        svg * {
          fill: rgb(229, 231, 235);
        }
      }
    </style></defs><polygon points="4 20 4 22 8.586 22 2 28.586 3.414 30 10 23.414 10 28 12 28 12 20 4 20"/><rect height="5" width="2" x="24.0001" y="21"/><rect height="10" width="2" x="20.0001" y="16"/><rect height="8" width="2" x="16" y="18"/><path d="M28,2H4A2.002,2.002,0,0,0,2,4V16H4V13H28.001l.001,15H16v2H28a2.0027,2.0027,0,0,0,2-2V4A2.0023,2.0023,0,0,0,28,2ZM12,11H4V4h8Zm2,0V4H28l.0007,7Z"/><rect class="cls-1" data-name="&lt;Transparent Rectangle&gt;" height="32" id="_Transparent_Rectangle_" width="32"/></svg>